<svg xmlns="http://www.w3.org/2000/svg" height="512" width="512" viewBox="0 0 511.99999 511.99998">
    <path d="M283.13 546.35l-160.74 92.806a38.396 38.396 0 0 1 0 8.59l160.75 92.805c13.554-10 32.043-10 45.597 0l160.75-92.807a38.343 38.343 0 0 1-.001-8.588l-160.74-92.806c-13.554 10.001-32.044 10.001-45.599 0zm221.79 127.03L344 767.22c1.884 16.739-7.361 32.751-22.799 39.489l.18 184.58a38.386 38.386 0 0 1 7.439 4.294l160.75-92.805c-1.884-16.739 7.36-32.752 22.799-39.49v-185.61a38.397 38.397 0 0 1-7.44-4.294zm-397.81 1.032a38.387 38.387 0 0 1-7.438 4.295v185.61c15.438 6.738 24.683 22.75 22.799 39.489l160.74 92.806a38.4 38.4 0 0 1 7.44-4.295v-185.61c-15.439-6.738-24.684-22.75-22.8-39.49l-160.74-92.81z" transform="translate(-50.017 -515.51)"/>
</svg>
